<svg width="375" height="488" viewBox="0 0 375 488" fill="none" xmlns="http://www.w3.org/2000/svg">
<path d="M-59.7888 75.2369C-55.1154 66.0996 -48.6133 58.9927 -40.2825 54.1195C-31.9516 49.2462 -22.808 46.8096 -12.6485 46.8096C-2.48897 46.8096 3.60675 48.434 10.1089 51.8859C16.611 55.3378 21.6907 59.6019 25.145 65.0843V48.434H62.7353V166.001H25.145V149.351C21.4875 154.834 16.4078 159.301 9.90565 162.55C3.40355 166.001 -4.3177 167.626 -12.8517 167.626C-21.3857 167.626 -31.9516 165.189 -40.0793 160.113C-48.4101 155.037 -54.709 147.93 -59.5856 138.792C-64.259 129.655 -66.6973 118.893 -66.6973 106.913C-66.6973 94.933 -64.259 84.1712 -59.5856 75.0339L-59.7888 75.2369ZM17.2205 85.9987C11.9376 80.7193 5.63867 78.2827 -1.87939 78.2827C-9.39745 78.2827 -15.6964 80.9224 -20.9793 85.9987C-26.2623 91.075 -28.9038 98.1819 -28.9038 107.116C-28.9038 116.05 -26.2623 123.157 -20.9793 128.437C-15.6964 133.716 -9.39745 136.356 -1.87939 136.356C5.63867 136.356 11.9376 133.716 17.2205 128.64C22.5035 123.36 24.9418 116.254 24.9418 107.319C24.9418 98.3849 22.3003 91.2781 17.2205 85.9987Z" fill="#F5F5F5"/>
<path d="M197.248 60.6178C205.782 69.5522 210.049 81.7353 210.049 97.3704V166.002H172.662V102.244C172.662 94.3246 170.63 88.233 166.363 83.9689C162.096 79.7048 156.407 77.4712 149.092 77.4712C141.777 77.4712 136.088 79.7048 131.821 83.9689C127.554 88.233 125.522 94.5276 125.522 102.244V166.002H87.9316V48.6377H125.522V64.2728C129.383 58.9934 134.462 54.9324 140.964 51.8866C147.467 48.8408 154.781 47.4194 162.706 47.4194C177.132 47.4194 188.511 51.8866 197.248 60.8209V60.6178Z" fill="#F5F5F5"/>
<path d="M254.333 162.55C246.003 159.098 239.297 154.224 234.421 148.133C229.544 142.041 226.903 135.137 226.293 127.624H263.477C263.883 131.686 265.915 134.934 269.369 137.574C272.824 140.011 277.294 141.432 282.374 141.432C287.453 141.432 290.704 140.62 293.346 138.792C295.987 136.965 297.207 134.731 297.207 131.889C297.207 129.046 295.378 126 291.72 124.376C288.063 122.751 282.17 120.924 273.84 119.096C265.102 117.066 257.584 115.035 251.895 112.802C246.002 110.568 240.923 107.116 236.656 102.446C232.389 97.7758 230.357 91.4811 230.357 83.359C230.357 75.2369 232.389 70.5667 236.249 64.8812C240.11 59.3988 245.799 54.9317 253.521 51.6828C261.039 48.434 270.182 46.8096 280.545 46.8096C295.987 46.8096 308.179 50.4645 316.916 57.7744C325.856 65.0843 330.936 74.8308 332.155 86.8109H297.41C296.8 82.7499 294.971 79.501 291.72 77.0644C288.469 74.6278 284.406 73.4095 279.326 73.4095C274.246 73.4095 271.605 74.2217 269.166 75.8461C266.728 77.4705 265.712 79.7041 265.712 82.5468C265.712 85.3895 267.541 88.4353 271.401 90.0598C275.059 91.6842 280.951 93.5117 288.876 95.1361C298.019 97.3697 305.334 99.6032 311.227 101.837C316.916 104.07 321.996 107.522 326.263 112.396C330.53 117.269 332.765 123.766 332.968 131.889C332.968 138.792 330.936 144.884 326.872 150.366C322.809 155.849 317.119 160.113 309.398 163.159C301.88 166.204 293.143 167.829 282.983 167.829C272.824 167.829 262.664 166.001 254.333 162.55Z" fill="#F5F5F5"/>
<path d="M414.869 78.486H394.55V166.205H356.96V78.486H343.346V48.6373H356.96V45.1854C356.96 30.7686 361.227 19.8038 369.964 12.2909C378.701 4.77792 391.299 0.919922 408.164 0.919922C425.028 0.919922 413.04 0.919922 414.259 1.12297V31.5809C407.148 31.1748 402.068 32.19 399.02 34.6266C396.175 37.0633 394.55 41.3274 394.55 47.419V48.4342H414.869V78.2829V78.486Z" fill="#F5F5F5"/>
<path d="M166.977 224.723C175.917 233.658 180.59 245.841 180.59 261.679V330.311H143.203V266.552C143.203 259.039 141.171 253.151 136.904 248.887C132.637 244.826 126.948 242.592 119.633 242.592C112.318 242.592 106.426 244.622 102.362 248.887C98.0949 252.948 96.063 258.836 96.063 266.552V330.311H58.6759V266.552C58.6759 259.039 56.644 253.151 52.377 248.887C48.11 244.826 42.4206 242.592 35.1058 242.592C27.7909 242.592 21.8984 244.622 17.8345 248.887C13.5675 252.948 11.5356 258.836 11.5356 266.552V330.311H-26.0547V212.743H11.5356V227.566C15.3962 222.693 20.2728 218.835 26.5717 215.789C32.6675 212.946 39.7791 211.525 47.5004 211.525C55.2216 211.525 64.9748 213.352 72.2897 217.21C79.6045 221.068 85.2939 226.348 89.3577 233.455C93.6247 226.957 99.5172 221.678 106.832 217.616C114.147 213.555 122.275 211.525 130.809 211.525C146.048 211.525 158.239 215.992 167.18 224.723H166.977Z" fill="#F5F5F5"/>
<path d="M228.345 324.626C218.795 319.752 211.074 312.645 205.588 303.508C200.101 294.371 197.257 283.609 197.257 271.426C197.257 259.243 200.101 248.684 205.588 239.546C211.074 230.409 218.795 223.302 228.548 218.429C238.301 213.556 249.07 211.119 261.262 211.119C273.453 211.119 284.223 213.556 293.976 218.429C303.729 223.302 311.247 230.409 316.936 239.546C322.422 248.684 325.267 259.446 325.267 271.426C325.267 283.406 322.422 294.168 316.733 303.305C311.044 312.442 303.322 319.549 293.569 324.422C283.816 329.296 272.844 331.732 260.856 331.732C248.867 331.732 237.895 329.296 228.345 324.422V324.626ZM279.346 293.152C284.426 288.076 286.864 280.766 286.864 271.426C286.864 262.085 284.426 254.775 279.549 249.699C274.673 244.623 268.577 242.186 261.465 242.186C254.353 242.186 248.055 244.623 243.178 249.699C238.301 254.775 235.863 261.882 235.863 271.426C235.863 280.969 238.301 288.076 242.975 293.152C247.648 298.229 253.744 300.665 260.856 300.665C267.967 300.665 274.266 298.229 279.346 293.152Z" fill="#F5F5F5"/>
<path d="M397.191 217.008C403.897 213.353 411.212 211.323 419.136 211.323V249.497H408.773C399.427 249.497 392.315 251.527 387.641 255.385C382.968 259.243 380.53 265.944 380.53 275.69V330.312H342.939V212.744H380.53V232.44C385 225.943 390.486 220.866 396.988 217.211L397.191 217.008Z" fill="#F5F5F5"/>
<path d="M43.6325 388.019C50.1346 391.471 55.2144 395.735 58.6686 401.218V384.568H96.2589V501.932C96.2589 512.694 94.0238 522.643 89.5536 531.375C85.0834 540.106 78.1749 547.213 69.0314 552.289C59.8878 557.568 48.5091 560.005 34.6921 560.005C20.8751 560.005 1.77519 555.944 -9.60349 547.619C-20.9822 539.497 -27.2811 528.329 -28.9066 514.115H8.27731C9.49645 518.582 12.3411 522.237 16.6081 524.674C21.0783 527.314 26.3613 528.532 32.8634 528.532C39.3655 528.532 46.8835 526.298 51.5569 522.034C56.2303 517.77 58.4654 510.866 58.4654 501.526V484.876C54.808 490.358 49.7282 494.825 43.2261 498.277C36.724 501.729 29.206 503.353 20.4688 503.353C11.7316 503.353 1.16562 500.917 -7.16521 495.84C-15.496 490.764 -21.7949 483.657 -26.6715 474.52C-31.3449 465.382 -33.7832 454.621 -33.7832 442.641C-33.7832 430.661 -31.3449 419.899 -26.6715 410.761C-21.9981 401.624 -15.496 394.517 -7.16521 389.644C1.16562 384.771 10.3092 382.334 20.4688 382.334C30.6283 382.334 36.724 383.958 43.2261 387.41L43.6325 388.019ZM50.9474 422.132C45.6644 416.853 39.3655 414.416 31.8474 414.416C24.3294 414.416 18.0305 417.056 12.7475 422.132C7.46454 427.209 4.82304 434.315 4.82304 443.25C4.82304 452.184 7.46454 459.291 12.7475 464.57C18.0305 469.85 24.3294 472.489 31.8474 472.489C39.3655 472.489 45.6644 469.85 50.9474 464.773C56.2303 459.494 58.6686 452.387 58.6686 443.453C58.6686 434.519 56.0272 427.412 50.9474 422.132Z" fill="#F5F5F5"/>
<path d="M237.295 451.981H151.955C152.565 459.291 155.003 464.773 159.27 468.834C163.537 472.692 169.023 474.723 175.322 474.723C184.669 474.723 191.171 470.865 195.032 463.352H235.06C233.029 471.068 229.371 477.972 223.885 484.266C218.602 490.358 211.897 495.231 203.769 498.886C195.641 502.338 186.701 504.165 176.745 504.165C166.788 504.165 153.987 501.729 144.641 496.855C135.294 491.982 127.979 484.875 122.696 475.738C117.413 466.601 114.771 455.839 114.771 443.656C114.771 431.472 117.413 420.711 122.696 411.573C127.979 402.436 135.294 395.329 144.641 390.456C153.987 385.583 164.756 383.146 176.948 383.146C189.139 383.146 199.502 385.583 208.646 390.253C217.992 395.126 225.104 401.827 230.387 410.761C235.67 419.695 238.108 429.848 238.108 441.828C238.108 453.808 237.905 448.732 237.499 452.387L237.295 451.981ZM199.299 432.082C199.299 425.99 197.064 420.914 192.594 417.259C188.123 413.604 182.637 411.776 176.135 411.776C169.633 411.776 164.553 413.604 160.083 417.056C155.816 420.508 152.971 425.584 151.955 432.082H199.096H199.299Z" fill="#F5F5F5"/>
<path d="M323.024 471.677V502.135H303.924C290.31 502.135 279.541 498.886 272.023 492.591C264.302 486.297 260.645 475.738 260.645 461.321V414.619H245.608V384.771H260.645V356.14H298.235V384.771H322.821V414.619H298.235V461.727C298.235 465.179 299.048 467.819 300.876 469.24C302.705 470.865 305.55 471.474 309.614 471.474H323.024V471.677Z" fill="#F5F5F5"/>
<path d="M452.884 396.751C461.418 405.685 465.685 417.868 465.685 433.503V502.135H428.298V438.376C428.298 430.457 426.266 424.366 421.999 420.102C417.732 415.837 412.043 413.604 404.728 413.604C397.413 413.604 391.724 415.837 387.457 420.102C383.19 424.366 381.158 430.66 381.158 438.376V502.135H343.567V346.19H381.158V400.405C385.018 395.126 390.098 391.065 396.803 388.019C403.509 384.973 410.824 383.349 419.154 383.349C433.174 383.349 444.553 387.816 453.087 396.751H452.884Z" fill="#F5F5F5"/>
</svg>
