<svg width="32" height="22" viewBox="0 0 32 22" fill="none" xmlns="http://www.w3.org/2000/svg">
<g style="mix-blend-mode:plus-darker" opacity="0.08">
<ellipse cx="16" cy="18" rx="6" ry="2" fill="black"/>
</g>
<path d="M16.0008 9C16.4958 9 16.9195 8.82375 17.272 8.47125C17.6245 8.11875 17.8008 7.695 17.8008 7.2C17.8008 6.705 17.6245 6.28125 17.272 5.92875C16.9195 5.57625 16.4958 5.4 16.0008 5.4C15.5058 5.4 15.082 5.57625 14.7295 5.92875C14.377 6.28125 14.2008 6.705 14.2008 7.2C14.2008 7.695 14.377 8.11875 14.7295 8.47125C15.082 8.82375 15.5058 9 16.0008 9ZM16.0008 18C13.5858 15.945 11.782 14.0362 10.5895 12.2737C9.39703 10.5112 8.80078 8.88 8.80078 7.38C8.80078 5.13 9.52453 3.3375 10.972 2.0025C12.4195 0.6675 14.0958 0 16.0008 0C17.9058 0 19.582 0.6675 21.0295 2.0025C22.477 3.3375 23.2008 5.13 23.2008 7.38C23.2008 8.88 22.6045 10.5112 21.412 12.2737C20.2195 14.0362 18.4158 15.945 16.0008 18Z" fill="#FFB81C"/>
</svg>
