<svg width="30" height="30" viewBox="0 0 30 30" fill="none" xmlns="http://www.w3.org/2000/svg">
<rect width="30" height="30" rx="15" fill="#F2F0EB"/>
<path d="M21.281 15.5C21.281 12.0381 18.4571 9.21429 14.9952 9.21429C13.0524 9.21429 11.3143 10.1048 10.1714 11.5H12.7095V13.2143H7V7.5H8.71429V10.5952C10.1762 8.71905 12.4381 7.5 15 7.5C19.4238 7.5 23 11.0762 23 15.5H21.281Z" fill="#333333"/>
<path d="M8.71905 15.5C8.71905 18.9619 11.5429 21.7857 15.0048 21.7857C16.9476 21.7857 18.6857 20.8952 19.8286 19.5L17.2905 19.5L17.2905 17.7857L23 17.7857V23.5H21.2857V20.4048C19.8238 22.281 17.5619 23.5 15 23.5C10.5762 23.5 7 19.9238 7 15.5H8.71905Z" fill="#333333"/>
</svg>
