<svg width="20" height="20" viewBox="0 0 20 20" fill="none" xmlns="http://www.w3.org/2000/svg">
<path d="M8.52051 8.354L6.39551 3.0415C6.25662 2.72206 6.2844 2.40956 6.47884 2.104C6.68717 1.81234 6.9719 1.6665 7.33301 1.6665L7.79134 1.6665C7.94412 1.6665 8.0969 1.70123 8.24967 1.77067C8.40245 1.854 8.52745 1.96511 8.62467 2.104L12.9997 8.354L16.6872 8.354C17.1316 8.354 17.5136 8.51373 17.833 8.83317C18.1663 9.15261 18.333 9.5415 18.333 9.99984C18.333 10.4582 18.1663 10.8471 17.833 11.1665C17.5136 11.4859 17.1316 11.6457 16.6872 11.6457L12.9997 11.6457L8.62467 17.8957C8.52745 18.0346 8.40245 18.1387 8.24967 18.2082C8.0969 18.2915 7.94412 18.3332 7.79134 18.3332L7.33301 18.3332C6.97189 18.3332 6.68717 18.1804 6.47884 17.8748C6.2844 17.5832 6.25662 17.2776 6.39551 16.9582L8.52051 11.6457L5.47884 11.6457L3.95801 13.8123C3.88856 13.9234 3.79134 14.0068 3.66634 14.0623C3.55523 14.1318 3.43023 14.1665 3.29134 14.1665L2.79134 14.1665C2.52745 14.1665 2.30523 14.0484 2.12467 13.8123C1.95801 13.5901 1.91634 13.3401 1.99967 13.0623L2.91634 9.99984L1.99967 6.93734C1.91634 6.65956 1.95801 6.40261 2.12467 6.1665C2.30523 5.94428 2.52745 5.83317 2.79134 5.83317L3.29134 5.83317C3.43023 5.83317 3.55523 5.86095 3.66634 5.9165C3.79134 5.98595 3.88856 6.07623 3.95801 6.18734L5.47884 8.354L8.52051 8.354Z" fill="white"/>
</svg>
