<svg width="24" height="24" viewBox="0 0 24 24" fill="none" xmlns="http://www.w3.org/2000/svg">
<path d="M9.96857 23L7.52571 18.4743L3 16.0314L4.72286 14.2829L8.45143 14.9257L10.9457 12.4571L3 9.03714L5.18571 6.85143L14.7514 8.62571L17.8371 5.54C18.1971 5.18 18.6343 5 19.1486 5C19.6629 5 20.1 5.18 20.46 5.54C20.82 5.9 21 6.33286 21 6.83857C21 7.34429 20.82 7.77714 20.46 8.13714L17.3743 11.2229L19.1486 20.8143L16.9629 23L13.5429 15.0543L11.0743 17.5486L11.7171 21.2771L9.96857 23Z" fill="#1C1B1F"/>
</svg>
