<svg width="56" height="42" viewBox="0 0 56 42" fill="none" xmlns="http://www.w3.org/2000/svg">
<path d="M9.26708 27.6669C9.21228 27.6669 9.15749 27.6549 9.1027 27.6368L4.30273 25.8173C3.22328 25.4089 2.5 24.304 2.5 23.0729V22.5625C2.5 21.3315 3.22328 20.2265 4.30273 19.8182L9.1027 17.9986C9.29996 17.9265 9.51913 17.9866 9.65612 18.1607C9.78762 18.3349 9.80954 18.5811 9.70543 18.7733C9.69447 18.7913 8.66434 20.7369 8.66434 22.8147C8.66434 24.8925 9.69447 26.8382 9.70543 26.8562C9.80954 27.0543 9.7931 27.2945 9.65612 27.4687C9.55749 27.5948 9.41502 27.6609 9.27256 27.6609L9.26708 27.6669Z" fill="url(#paint0_linear_978_16445)" stroke="#494E54" stroke-width="1.21875"/>
<path d="M46.2496 27.4687C46.1181 27.2946 46.0961 27.0485 46.2002 26.8564C46.2112 26.8384 47.2413 24.8932 47.2413 22.816C47.2413 20.7388 46.2112 18.7937 46.2002 18.7757C46.0961 18.5775 46.1126 18.3374 46.2496 18.1633C46.3811 17.9892 46.6057 17.9232 46.803 18.0012L51.603 19.8203C52.6824 20.2285 53.4057 21.3332 53.4057 22.5639V23.0742C53.4057 24.3049 52.6824 25.4095 51.603 25.8178L46.803 27.6368C46.7482 27.6549 46.6934 27.6669 46.6386 27.6669C46.4907 27.6669 46.3482 27.6008 46.255 27.4747L46.2496 27.4687Z" fill="url(#paint1_linear_978_16445)" stroke="#494E54" stroke-width="1.21875"/>
<path d="M44.9231 2.40032C44.9231 3.49397 44.3278 4.55289 43.2932 5.09682L34.1493 9.89379L32.6176 10.6981C31.5483 10.4782 30.4327 10.3567 29.2825 10.3567C28.9588 10.3567 28.6352 10.3683 28.3115 10.3856L27.9531 9.70862L28.8953 9.21677L44.559 1C44.796 1.45134 44.9058 1.93162 44.9058 2.40611L44.9231 2.40032Z" fill="#A92649"/>
<path d="M44.9249 7.26406C44.9249 8.36119 44.3478 9.4235 43.3448 9.96916L38.683 12.5001L37.54 13.1212C36.4586 12.4711 35.2763 11.9544 34.0156 11.5887L35.4052 10.8341L44.5887 5.84766C44.8185 6.30044 44.9249 6.78225 44.9249 7.25826V7.26406Z" fill="#E6AA2A"/>
<path d="M44.9291 12.2319C44.9291 13.424 44.3038 14.5782 43.2171 15.1711L41.402 16.1613L40.2971 16.7605C39.5261 15.8964 38.6337 15.1206 37.6562 14.4521L38.8583 13.8024L44.5588 10.6992C44.8077 11.1912 44.923 11.7147 44.923 12.2319H44.9291Z" fill="#1B2E66"/>
<path d="M23.1869 10.1074C21.7704 10.4895 20.4451 11.0448 19.2353 11.7374C18.98 11.8867 18.7246 12.036 18.4754 12.1972C17.4601 12.854 16.5421 13.6123 15.7396 14.4541C15.5755 14.6213 15.4235 14.7885 15.2715 14.9617C14.4933 15.8573 13.8489 16.8425 13.3504 17.8873C13.2531 18.0904 13.1619 18.2934 13.0829 18.4964C12.5722 19.7383 12.2683 21.0698 12.2075 22.4431C12.2014 22.6162 12.1953 22.7834 12.1953 22.9625C12.1953 23.0819 12.1953 23.1954 12.1953 23.3148C12.2804 26.1748 13.4173 28.8199 15.2776 30.9753C18.1532 34.2951 22.7614 36.4446 27.9471 36.4446C29.3819 36.4446 30.8105 36.2774 32.2027 35.943C32.4155 35.8953 32.6343 35.955 32.7924 36.1042L37.7593 40.9764C37.7593 40.9764 37.7958 41.0122 37.8444 40.9943C37.8931 40.9764 37.8931 40.9406 37.8931 40.9227V33.7279C37.8931 33.5368 37.9842 33.3517 38.1484 33.2383C41.6866 30.6648 43.7111 26.9212 43.7111 22.9625C43.7111 15.8334 37.2061 9.97604 29.0049 9.51032C28.6584 9.49241 28.3058 9.48047 27.9532 9.48047C26.7069 9.48047 25.491 9.60586 24.3298 9.84469C23.9468 9.92231 23.5699 10.0119 23.1991 10.1134" fill="url(#paint2_linear_978_16445)"/>
<path d="M23.1869 10.1074C21.7704 10.4895 20.4451 11.0448 19.2353 11.7374C18.98 11.8867 18.7246 12.036 18.4754 12.1972C17.4601 12.854 16.5421 13.6123 15.7396 14.4541C15.5755 14.6213 15.4235 14.7885 15.2715 14.9617C14.4933 15.8573 13.8489 16.8425 13.3504 17.8873C13.2531 18.0904 13.1619 18.2934 13.0829 18.4964C12.5722 19.7383 12.2683 21.0698 12.2075 22.4431C12.2014 22.6162 12.1953 22.7834 12.1953 22.9625C12.1953 23.0819 12.1953 23.1954 12.1953 23.3148C12.2804 26.1748 13.4173 28.8199 15.2776 30.9753C18.1532 34.2951 22.7614 36.4446 27.9471 36.4446C29.3819 36.4446 30.8105 36.2774 32.2027 35.943C32.4155 35.8953 32.6343 35.955 32.7924 36.1042L37.7593 40.9764C37.7593 40.9764 37.7958 41.0122 37.8444 40.9943C37.8931 40.9764 37.8931 40.9406 37.8931 40.9227V33.7279C37.8931 33.5368 37.9842 33.3517 38.1484 33.2383C41.6866 30.6648 43.7111 26.9212 43.7111 22.9625C43.7111 15.8334 37.2061 9.97604 29.0049 9.51032C28.6584 9.49241 28.3058 9.48047 27.9532 9.48047C26.7069 9.48047 25.491 9.60586 24.3298 9.84469C23.9468 9.92231 23.5699 10.0119 23.1991 10.1134" stroke="#494E54" stroke-width="1.21875"/>
<path d="M37.6013 17.9688H18.311C17.6129 17.9688 17.0469 18.6179 17.0469 19.4187V26.2169C17.0469 27.0177 17.6129 27.6669 18.311 27.6669H37.6013C38.2995 27.6669 38.8655 27.0177 38.8655 26.2169V19.4187C38.8655 18.6179 38.2995 17.9688 37.6013 17.9688Z" fill="#EFEFEF" stroke="#494E54" stroke-width="1.21875"/>
<path d="M32.8071 25.2475C31.468 25.2475 30.3828 24.1622 30.3828 22.823C30.3828 21.4838 31.468 20.3984 32.8071 20.3984C34.1462 20.3984 35.2314 21.4838 35.2314 22.823C35.2314 24.1622 34.1462 25.2475 32.8071 25.2475ZM32.8071 21.6615C32.1661 21.6615 31.6457 22.1819 31.6457 22.823C31.6457 23.464 32.1661 23.9845 32.8071 23.9845C33.4481 23.9845 33.9685 23.464 33.9685 22.823C33.9685 22.1819 33.4481 21.6615 32.8071 21.6615Z" fill="#494E54"/>
<path d="M26.0873 25.2417C25.8609 25.2417 25.6345 25.117 25.5146 24.8953L23.8033 21.7774L21.9055 24.923C21.7123 25.2417 21.3061 25.3456 20.9932 25.1447C20.6802 24.9438 20.587 24.5211 20.7801 24.1955L22.6646 21.0499C22.911 20.6342 23.3438 20.3917 23.8166 20.3986C24.2894 20.4055 24.7089 20.6688 24.942 21.0914L26.6533 24.2093C26.8331 24.5419 26.7266 24.9576 26.4069 25.1447C26.3004 25.207 26.1939 25.2348 26.0806 25.2348L26.0873 25.2417Z" fill="#494E54"/>
<defs>
<linearGradient id="paint0_linear_978_16445" x1="6.76232" y1="19.6719" x2="4.8133" y2="24.641" gradientUnits="userSpaceOnUse">
<stop offset="0.120192" stop-color="#EFEFEF"/>
<stop offset="1" stop-color="#C9CACA"/>
</linearGradient>
<linearGradient id="paint1_linear_978_16445" x1="50.3951" y1="19.6719" x2="48.4461" y2="24.641" gradientUnits="userSpaceOnUse">
<stop offset="0.120192" stop-color="#EFEFEF"/>
<stop offset="1" stop-color="#C9CACA"/>
</linearGradient>
<linearGradient id="paint2_linear_978_16445" x1="30.6654" y1="15.0156" x2="25.6203" y2="32.1657" gradientUnits="userSpaceOnUse">
<stop offset="0.120192" stop-color="#EFEFEF"/>
<stop offset="1" stop-color="#C9CACA"/>
</linearGradient>
</defs>
</svg>
