<svg width="24" height="24" viewBox="0 0 24 24" fill="none" xmlns="http://www.w3.org/2000/svg">
<path d="M5.28967 21C3.14508 21 2 19.8929 2 17.8028V6.20679C2 4.11665 3.14508 3 5.28967 3H18.7103C20.8646 3 22 4.11665 22 6.20679V17.8028C22 19.8929 20.8646 21 18.7103 21H5.28967ZM5.35759 18.8812H18.6327C19.409 18.8812 19.836 18.4995 19.836 17.6882V9.02227C19.836 8.22057 19.409 7.83881 18.6327 7.83881H5.35759C4.58127 7.83881 4.164 8.22057 4.164 9.02227V17.6882C4.164 18.4995 4.58127 18.8812 5.35759 18.8812ZM10.1514 11.0551C9.80204 11.0551 9.68559 10.9502 9.68559 10.6066V10.0435C9.68559 9.69989 9.80204 9.59491 10.1514 9.59491H10.7239C11.0733 9.59491 11.1897 9.69989 11.1897 10.0435V10.6066C11.1897 10.9502 11.0733 11.0551 10.7239 11.0551H10.1514ZM13.2858 11.0551C12.9364 11.0551 12.82 10.9502 12.82 10.6066V10.0435C12.82 9.69989 12.9364 9.59491 13.2858 9.59491H13.8583C14.2077 9.59491 14.3241 9.69989 14.3241 10.0435V10.6066C14.3241 10.9502 14.2077 11.0551 13.8583 11.0551H13.2858ZM16.4202 11.0551C16.0708 11.0551 15.9544 10.9502 15.9544 10.6066V10.0435C15.9544 9.69989 16.0708 9.59491 16.4202 9.59491H16.9927C17.3421 9.59491 17.4682 9.69989 17.4682 10.0435V10.6066C17.4682 10.9502 17.3421 11.0551 16.9927 11.0551H16.4202ZM7.01698 14.0901C6.66764 14.0901 6.54148 13.9852 6.54148 13.6416V13.0785C6.54148 12.7349 6.66764 12.6299 7.01698 12.6299H7.58952C7.93886 12.6299 8.05531 12.7349 8.05531 13.0785V13.6416C8.05531 13.9852 7.93886 14.0901 7.58952 14.0901H7.01698ZM10.1514 14.0901C9.80204 14.0901 9.68559 13.9852 9.68559 13.6416V13.0785C9.68559 12.7349 9.80204 12.6299 10.1514 12.6299H10.7239C11.0733 12.6299 11.1897 12.7349 11.1897 13.0785V13.6416C11.1897 13.9852 11.0733 14.0901 10.7239 14.0901H10.1514ZM13.2858 14.0901C12.9364 14.0901 12.82 13.9852 12.82 13.6416V13.0785C12.82 12.7349 12.9364 12.6299 13.2858 12.6299H13.8583C14.2077 12.6299 14.3241 12.7349 14.3241 13.0785V13.6416C14.3241 13.9852 14.2077 14.0901 13.8583 14.0901H13.2858ZM16.4202 14.0901C16.0708 14.0901 15.9544 13.9852 15.9544 13.6416V13.0785C15.9544 12.7349 16.0708 12.6299 16.4202 12.6299H16.9927C17.3421 12.6299 17.4682 12.7349 17.4682 13.0785V13.6416C17.4682 13.9852 17.3421 14.0901 16.9927 14.0901H16.4202ZM7.01698 17.1251C6.66764 17.1251 6.54148 17.0201 6.54148 16.6766V16.1135C6.54148 15.7699 6.66764 15.6649 7.01698 15.6649H7.58952C7.93886 15.6649 8.05531 15.7699 8.05531 16.1135V16.6766C8.05531 17.0201 7.93886 17.1251 7.58952 17.1251H7.01698ZM10.1514 17.1251C9.80204 17.1251 9.68559 17.0201 9.68559 16.6766V16.1135C9.68559 15.7699 9.80204 15.6649 10.1514 15.6649H10.7239C11.0733 15.6649 11.1897 15.7699 11.1897 16.1135V16.6766C11.1897 17.0201 11.0733 17.1251 10.7239 17.1251H10.1514ZM13.2858 17.1251C12.9364 17.1251 12.82 17.0201 12.82 16.6766V16.1135C12.82 15.7699 12.9364 15.6649 13.2858 15.6649H13.8583C14.2077 15.6649 14.3241 15.7699 14.3241 16.1135V16.6766C14.3241 17.0201 14.2077 17.1251 13.8583 17.1251H13.2858Z" fill="#78716E"/>
</svg>
