<svg width="24" height="24" viewBox="0 0 24 24" fill="none" xmlns="http://www.w3.org/2000/svg">
<path d="M14.5037 18.6018C16.2128 18.6018 17.2622 17.6345 17.742 16.0578L21.3501 4.1117C21.44 3.82151 21.5 3.54099 21.5 3.2895C21.5 2.18678 20.6105 1.5 19.681 1.5C18.9413 1.5 18.1318 1.94496 17.8419 2.92193L16.0129 9.03524H8.32693C7.78722 9.03524 7.34745 9.46085 7.34745 9.98319C7.34745 10.5152 7.78722 10.9408 8.32693 10.9408H15.4432L14.4337 14.3167C13.914 13.9104 13.0744 13.6299 12.2449 13.6299H5.07864C3.65939 13.6299 2.5 14.7423 2.5 16.1158C2.5 17.4894 3.65939 18.6018 5.07864 18.6018H14.5037ZM14.9335 22.5C15.4732 22.5 15.9129 22.0744 15.9129 21.5521C15.9129 21.0297 15.4732 20.6041 14.9335 20.6041H5.5484C5.00868 20.6041 4.56891 21.0297 4.56891 21.5521C4.56891 22.0744 5.00868 22.5 5.5484 22.5H14.9335Z" fill="#78716E"/>
</svg>
