<svg width="52" height="52" viewBox="0 0 52 52" fill="none" xmlns="http://www.w3.org/2000/svg">
<path d="M38.8299 4.39776C37.0957 2.4709 32.5437 5.22863 38.8299 9.62337C45.116 5.22875 40.5648 2.47009 38.8299 4.39776Z" fill="#F49BB4" stroke="black"/>
<path d="M44.3924 13.1946C42.6582 11.2678 38.1062 14.0255 44.3924 18.4202C50.6785 14.0256 46.1273 11.267 44.3924 13.1946Z" fill="#F49BB4" stroke="black"/>
<path d="M8.06445 9.66338C9.79861 7.73653 14.3506 10.4943 8.06445 14.889C1.77835 10.4944 6.32955 7.73571 8.06445 9.66338Z" fill="#F49BB4" stroke="black"/>
<path d="M27.8672 21.6366L34.0269 25.5023C39.986 26.3459 39.4774 12.8125 35.4101 12.8125C30.6303 12.8125 28.2622 17.1103 27.8672 17.8062V21.6366Z" fill="#F27780"/>
<path d="M27.8672 21.6375C28.2218 22.2623 30.1736 24.9576 34.0269 25.5032C36.6646 23.1265 36.5654 16.0311 27.8672 21.6375Z" fill="#D64B56"/>
<path d="M22.9856 21.6366L16.8259 25.5023C10.8668 26.3459 11.3753 12.8125 15.4427 12.8125C20.2225 12.8125 22.5906 17.1103 22.9856 17.8062V21.6366Z" fill="#F27780"/>
<path d="M22.9847 21.6375C22.63 22.2623 20.6783 24.9576 16.8249 25.5032C14.1872 23.1265 14.2865 16.0311 22.9847 21.6375Z" fill="#D64B56"/>
<path d="M21.8359 25.5638H29.0128V20.4317C29.0128 15.7804 21.8359 15.6303 21.8359 20.4317V25.5638Z" fill="#F0636D"/>
<path d="M37.5417 47.0383H13.3125C12.8815 47.0383 12.4682 46.8671 12.1635 46.5623C11.8587 46.2576 11.6875 45.8443 11.6875 45.4133V29.875L25.5078 29.875L39.1667 29.875V45.4133C39.1667 45.6267 39.1247 45.838 39.043 46.0351C38.9613 46.2323 38.8416 46.4114 38.6908 46.5623C38.5399 46.7132 38.3607 46.8329 38.1636 46.9146C37.9664 46.9963 37.7551 47.0383 37.5417 47.0383Z" fill="url(#paint0_linear_978_16415)"/>
<path d="M11.6875 27.0859H39.1668V31.8743H11.6875V27.0859Z" fill="#8762A9"/>
<path d="M29.0127 47.0384H21.8359V31.8751L25.4243 29.8438L29.0127 31.8751V47.0384Z" fill="#F27780"/>
<path d="M21.8359 27.0859H29.0127V31.8743H21.8359V27.0859Z" fill="#D64B56"/>
<path d="M10.2109 22.4961C9.77996 22.4961 9.36664 22.6673 9.06189 22.972C8.75714 23.2768 8.58594 23.6901 8.58594 24.1211V27.4927C8.58594 27.9237 8.75715 28.337 9.06189 28.6418C9.36664 28.9465 9.77996 29.1177 10.2109 29.1177H21.8375L22.65 25.8069L21.8375 22.4961L10.2109 22.4961Z" fill="#9E7CB8"/>
<path d="M40.6422 22.4961H29.0156L28.2031 25.8069L29.0156 29.1177H40.6422C41.0732 29.1177 41.4865 28.9465 41.7913 28.6418C42.096 28.337 42.2672 27.9237 42.2672 27.4927V24.1211C42.2672 23.6901 42.096 23.2768 41.7913 22.972C41.4865 22.6673 41.0732 22.4961 40.6422 22.4961Z" fill="#9E7CB8"/>
<path d="M21.8359 22.4961H29.0127V29.1178H21.8359V22.4961Z" fill="#F27780"/>
<path d="M40.6409 22.0878H38.5146C39.4016 18.7598 38.686 14.0828 36.6186 12.7684C35.0251 11.7553 30.5637 12.6097 27.7614 17.1842C26.372 16.2565 24.4449 16.2475 23.0715 17.1537C20.3352 12.7137 15.9315 11.7819 14.3224 12.7143C12.202 13.943 11.4287 18.6815 12.337 22.0878H10.2109C9.6724 22.0884 9.1561 22.3026 8.7753 22.6834C8.3945 23.0642 8.1803 23.5805 8.17969 24.1191V27.4907C8.1803 28.0292 8.3945 28.5455 8.7753 28.9263C9.1561 29.3071 9.6724 29.5213 10.2109 29.5219H11.2801V45.411C11.2807 45.9496 11.4949 46.4659 11.8757 46.8467C12.2565 47.2275 12.7728 47.4417 13.3114 47.4423H37.5406C38.0791 47.4417 38.5954 47.2275 38.9762 46.8467C39.357 46.4659 39.5712 45.9496 39.5718 45.411V29.5219H40.6409C41.1794 29.5213 41.6957 29.3071 42.0765 28.9263C42.4573 28.5455 42.6716 28.0292 42.6722 27.4907V24.1191C42.6716 23.5805 42.4573 23.0642 42.0765 22.6834C41.6957 22.3026 41.1794 22.0884 40.6409 22.0878ZM36.2688 13.5108C37.8922 14.6748 38.5786 19.0012 37.6707 22.0878H35.9442C35.9881 19.5675 33.9364 17.9272 29.4165 20.2624C29.3789 19.1869 28.9856 18.3338 28.3918 17.7121C31.086 13.2165 35.2122 12.7533 36.2688 13.5108ZM28.608 29.5219V46.6298H22.2438V29.5219H28.608ZM22.2438 28.7094V22.9003H28.608V28.7094H22.2438ZM15.7203 22.0878C15.6732 19.8558 17.5479 19.0524 21.4313 21.1807V22.0878H15.7203ZM29.4206 21.1807C33.3135 19.0471 35.1782 19.8633 35.1316 22.0878H29.4206V21.1807ZM28.6081 20.4319V22.0878H22.2438V20.4319C22.2438 16.16 28.6081 16.3195 28.6081 20.4319ZM14.6435 13.4693C15.6992 12.7748 19.7654 13.2461 22.4409 17.6802C21.8603 18.2924 21.4714 19.1474 21.4353 20.2623C17.1186 18.0322 14.8608 19.3972 14.9077 22.0878H13.1814C12.2649 18.9725 12.9697 14.5705 14.6435 13.4693ZM8.99219 27.4907V24.1191C8.99255 23.7959 9.12107 23.4861 9.34955 23.2577C9.57803 23.0292 9.88782 22.9007 10.2109 22.9003H21.4313V28.7094H10.2109C9.88782 28.7091 9.57803 28.5806 9.34955 28.3521C9.12107 28.1236 8.99255 27.8138 8.99219 27.4907ZM12.0926 45.411V29.5219H21.4313V46.6298H13.3114C12.9883 46.6294 12.6785 46.5009 12.45 46.2724C12.2215 46.0439 12.093 45.7341 12.0926 45.411ZM38.7593 45.411C38.759 45.7341 38.6304 46.0439 38.402 46.2724C38.1735 46.5009 37.8637 46.6294 37.5406 46.6298H29.4205V29.5219H38.7593V45.411ZM41.8597 27.4907C41.8593 27.8138 41.7308 28.1236 41.5023 28.3521C41.2738 28.5806 40.964 28.7091 40.6409 28.7094H29.4205V22.9003H40.6409C40.964 22.9007 41.2738 23.0292 41.5023 23.2577C41.7308 23.4861 41.8593 23.7959 41.8597 24.1191V27.4907Z" fill="black"/>
<defs>
<linearGradient id="paint0_linear_978_16415" x1="25.4271" y1="29.875" x2="25.4271" y2="47.0383" gradientUnits="userSpaceOnUse">
<stop stop-color="#9E7CB8"/>
<stop offset="1" stop-color="#B792D3"/>
</linearGradient>
</defs>
</svg>
