<svg width="242" height="24" viewBox="0 0 242 24" fill="none" xmlns="http://www.w3.org/2000/svg">
<path d="M14.9605 23.3209L13.5732 18.6642H5.76395L4.3766 23.3209H0L7.49456 0.94832H11.8139L19.3371 23.3209H14.9605ZM9.65426 5.86537L6.82234 14.9908H12.4862L9.63995 5.86537H9.65426Z" fill="#454B52"/>
<path d="M35.6564 20.2405C34.2118 22.8726 31.3942 23.7548 28.5766 23.7548C24.8436 23.7548 21.3967 22.2073 20.2954 18.3026C20.0522 17.4494 20.0236 16.5817 19.9521 15.6995H24.057C24.1142 16.3069 24.2143 16.8709 24.4431 17.4494C25.1583 19.2571 26.7888 20.0091 28.6481 20.0091C30.0498 20.0091 32.1952 19.4162 32.1952 17.6374C32.1952 17.2614 32.0664 17.0011 31.9091 16.654C31.4371 15.6995 29.7208 15.0342 28.8054 14.6582C26.9175 13.8628 24.5433 13.0096 22.9414 11.7803C21.4396 10.6089 20.6816 8.96022 20.6816 7.05125C20.6673 2.75606 24.3716 0.5 28.2619 0.5C31.0366 0.5 33.9973 1.70034 35.213 4.43364C35.685 5.44598 35.8137 6.40046 35.8709 7.49957H31.7661C31.7947 5.41705 30.107 4.20225 28.1618 4.20225C26.7888 4.20225 24.9294 4.95427 24.9294 6.61739C24.9294 8.28051 26.8746 8.77222 28.0617 9.24946C29.9353 10.0015 32.5813 10.8692 34.2118 12.0406C35.8423 13.212 36.5002 14.8896 36.5002 16.8854C36.5002 18.0568 36.2142 19.2282 35.6564 20.2405Z" fill="#454B52"/>
<path d="M39.418 23.3209V0.94832H43.6801V23.3209H39.418Z" fill="#454B52"/>
<path d="M60.8433 23.3209L59.4702 18.6642H51.661L50.2736 23.3209H45.897L53.3773 0.94832H57.6967L65.2199 23.3209H60.829H60.8433ZM55.537 5.86537L52.7194 14.9908H58.3975L55.5513 5.86537H55.537Z" fill="#454B52"/>
<path d="M80.1232 23.3209L70.8551 7.57188V23.3209H66.8074V0.94832H71.3557L80.352 16.7118V0.94832H84.3996V23.3209H80.1232Z" fill="#454B52"/>
<path d="M100.919 23.3209L99.5461 18.6642H91.7512L90.3638 23.3209H85.9729L93.4675 0.94832H97.7869L105.31 23.3209H100.919ZM95.6272 5.86537L92.7953 14.9908H98.4734L95.6129 5.86537H95.6272Z" fill="#454B52"/>
<path d="M130.239 23.3209L128.866 18.6642H121.072L119.684 23.3209H115.293L122.788 0.94832H127.107L134.63 23.3209H130.239ZM124.948 5.85091L122.13 14.9764H127.808L124.948 5.85091Z" fill="#454B52"/>
<path d="M136.919 23.3209V0.94832H141.181V23.3209H136.919Z" fill="#454B52"/>
<path d="M156.857 23.3209L152.351 14.7595H149.276V23.3209H145.014V0.94832H150.993C152.78 0.94832 154.668 0.890472 156.356 1.51233C159.145 2.52467 160.647 4.8675 160.647 7.81773C160.647 10.768 159.302 12.8216 156.728 14.0364L161.805 23.3209H156.842H156.857ZM154.597 5.02658C153.653 4.57826 152.337 4.60719 151.307 4.60719H149.262V11.0717H152.051C154.311 11.0717 156.285 10.4353 156.285 7.74542C156.285 6.51616 155.712 5.53275 154.597 5.01212V5.02658Z" fill="#454B52"/>
<path d="M163.936 23.3209V0.94832H168.284V19.6476H177.91V23.3209H163.936Z" fill="#454B52"/>
<path d="M180.427 23.3209V0.94832H184.689V23.3209H180.427Z" fill="#454B52"/>
<path d="M201.838 23.3209L192.556 7.57188V23.3209H188.508V0.94832H193.057L202.053 16.6974V0.94832H206.1V23.3209H201.838Z" fill="#454B52"/>
<path d="M209.905 23.3209V0.94832H223.85V4.62165H214.167V9.88579H222.978V13.5591H214.167V19.6331H224.193V23.3064H209.905V23.3209Z" fill="#454B52"/>
<path d="M241.156 20.255C239.712 22.8871 236.894 23.7692 234.076 23.7692C230.343 23.7692 226.896 22.2218 225.795 18.3171C225.552 17.4638 225.523 16.5961 225.452 15.7139H229.557C229.614 16.3213 229.714 16.8854 229.929 17.4638C230.644 19.2716 232.274 20.0236 234.134 20.0236C235.55 20.0236 237.681 19.4162 237.681 17.6518C237.681 17.2758 237.552 17.0155 237.395 16.6684C236.923 15.7139 235.206 15.0487 234.291 14.6727C232.403 13.8773 230.029 13.024 228.427 11.7948C226.925 10.6233 226.167 8.97469 226.167 7.06571C226.167 2.75606 229.871 0.5 233.747 0.5C236.551 0.5 239.497 1.7148 240.713 4.43364C241.185 5.44598 241.299 6.40046 241.371 7.51403H237.266C237.294 5.41705 235.607 4.21671 233.662 4.21671C232.289 4.21671 230.443 4.9832 230.443 6.63185C230.443 8.28051 232.389 8.78668 233.576 9.26392C235.464 10.0304 238.095 10.8837 239.712 12.0551C241.342 13.2265 242 14.9041 242 16.9143C242 18.0857 241.714 19.2571 241.156 20.2694V20.255Z" fill="#454B52"/>
</svg>
